<svg id="Capa_1" enable-background="new 0 0 512 512" height="512" viewBox="0 0 512 512" width="512" xmlns="http://www.w3.org/2000/svg"><path d="m421.661 106.643c.149-1.408.27-2.825.337-4.258 1.833-39.34-28.55-72.718-67.862-74.552-1.127-.052-2.251-.079-3.368-.079-14.463 0-27.996 4.361-39.305 11.873-16.085-22.757-42.108-38.125-72.087-39.523-1.484-.07-2.963-.104-4.433-.104-42.719-.001-79.302 28.916-90.209 68.921-9.222-3.019-18.996-4.864-29.16-5.338-1.742-.081-3.487-.122-5.213-.122-58.441-.005-107.121 46-109.871 105.029-2.234 47.959 26.528 90.175 68.601 107.24.258 17.364 7.682 33.141 19.546 44.338 14.425-11.304 32.563-18.068 52.261-18.068 42.945 0 78.525 32.066 84.143 73.525.367.022.731.054 1.099.071 1.213.057 2.422.085 3.624.085 29.468 0 55.354-16.827 68.105-41.721 12.662 13.269 30.232 21.888 49.991 22.81 1.17.055 2.341.082 3.5.082 35.371 0 65.411-25.097 72.349-59.073 47.485-3.64 85.909-42.217 88.184-91.044 2.449-52.537-37.875-97.151-90.232-100.092z"/><ellipse cx="34.975" cy="477" rx="34.975" ry="35"/><ellipse cx="140.898" cy="387" rx="54.96" ry="55"/></svg>